<?xml version="1.0" encoding="UTF-8" standalone="no"?><!DOCTYPE svg PUBLIC "-//W3C//DTD SVG 1.1//EN" "http://www.w3.org/Graphics/SVG/1.1/DTD/svg11.dtd"><svg width="100%" height="100%" viewBox="0 0 5250 1000" version="1.1" xmlns="http://www.w3.org/2000/svg" xmlns:xlink="http://www.w3.org/1999/xlink" xml:space="preserve" xmlns:serif="http://www.serif.com/" style="fill-rule:evenodd;clip-rule:evenodd;stroke-linejoin:round;stroke-miterlimit:2;"><rect id="Substack-Wordmark" serif:id="Substack Wordmark" x="-0" y="0" width="5250" height="1000" style="fill:none;"/><clipPath id="_clip1"><rect x="-0" y="0" width="5250" height="1000"/></clipPath><g clip-path="url(#_clip1)"><path d="M5250,-0l0,1000l-5250,-0l0,-1000l5250,-0Zm-10,10l-5230,-0c0,97.806 0,882.194 -0,980l5230,-0l-0,-980Z" style="fill:#55aa5c;"/><rect x="0" y="-0" width="5250" height="1000" style="fill:#24125f;"/><g transform="matrix(0.661036,0,0,0.799662,329.184,-1500.57)"><g transform="matrix(1.20971,0,0,1,43.8738,0)"><text x="-209.212px" y="2758.79px" style="font-family:'OldEnglishTextMT', 'Old English Text MT';font-size:1045.35px;fill:#78aa00;">B</text></g><g transform="matrix(1.20971,0,0,1,-179.883,0)"><text x="857.772px" y="2758.79px" style="font-family:'Playball-Regular', 'Playball';font-size:1045.35px;fill:#78aa00;">rave</text></g><g transform="matrix(1.20971,0,0,1,-596.502,0)"><text x="3111.37px" y="2758.79px" style="font-family:'OldEnglishTextMT', 'Old English Text MT';font-size:1045.35px;fill:#78aa00;">G</text></g><g transform="matrix(1.20971,0,0,1,-874.256,0)"><g transform="matrix(1045.35,0,0,1045.35,6540.79,2758.79)"></g><text x="4168.88px" y="2758.79px" style="font-family:'Playball-Regular', 'Playball';font-size:1045.35px;fill:#78aa00;">rumpy</text></g></g></g></svg>